# AST/ASF file generated using VICON BodyLanguage
# -----------------------------------------------
:version 1.10
:name VICON
:units
  mass 1.0
  length 0.45
  angle deg
:documentation
   .ast/.asf automatically generated from VICON data using
   VICON BodyBuilder and BodyLanguage model FoxedUp or BRILLIANT.MOD
:root
   order TX TY TZ RX RY RZ
   axis XYZ
   position 0 0 0  
   orientation 0 0 0 
:bonedata
  begin
     id 1 
     name lhipjoint
     direction 0.575328 -0.747301 0.332475 
     length 2.40933 
     axis 0 0 0  XYZ
  end
  begin
     id 2 
     name lfemur
     direction 0.34202 -0.939693 0  
     length 7.31453  
     axis 0 0 20  XYZ
    dof rx ry rz
    limits (-160.0 20.0)
           (-70.0 70.0)
           (-60.0 70.0)
  end
  begin
     id 3 
     name ltibia
     direction 0.34202 -0.939693 0   
     length 7.82185   
     axis 0 0 20   XYZ
    dof rx
    limits (-10.0 170.0)
  end
  begin
     id 4 
     name lfoot
     direction 0.0795993 -0.218697 0.972541   
     length 2.19173   
     axis -90 7.62852e-016 20   XYZ
    dof rx rz
    limits (-45.0 90.0)
           (-70.0 20.0)
  end
  begin
     id 5 
     name ltoes
     direction 1.53537e-011 -4.21894e-011 1   
     length 1.10023   
     axis -90 7.62852e-016 20   XYZ
    dof rx
    limits (-90.0 20.0)
  end
  begin
     id 6 
     name rhipjoint
     direction -0.513884 -0.783789 0.348708   
     length 2.29716  
     axis 0 0 0  XYZ 
  end
  begin
     id 7 
     name rfemur
     direction -0.34202 -0.939693 0   
     length 7.59573   
     axis 0 0 -20   XYZ
    dof rx ry rz
    limits (-160.0 20.0)
           (-70.0 70.0)
           (-70.0 60.0)
  end
  begin
     id 8 
     name rtibia
     direction -0.34202 -0.939693 0   
     length 7.66402   
     axis 0 0 -20   XYZ
    dof rx
    limits (-10.0 170.0)
 end
 begin
     id 9 
     name rfoot
     direction -0.137793 -0.378584 0.915253   
     length 2.27056  
     axis -90 -7.62852e-016 -20   XYZ
    dof rx rz
    limits (-45.0 90.0)
           (-20.0 70.0)
  end
  begin
     id 10 
     name rtoes
     direction -1.53493e-011 -4.22159e-011 1   
     length 1.11766   
     axis -90 -7.62852e-016 -20   XYZ
    dof rx
    limits (-90.0 20.0)
  end
  begin
     id 11 
     name lowerback
     direction -0.00732775 0.998356 -0.05685   
     length 2.16513   
     axis 0 0 0   XYZ
    dof rx ry rz
    limits (-20.0 45.0)
           (-30.0 30.0)
           (-30.0 30.0)
  end
  begin
     id 12 
     name upperback
     direction 0.0218081 0.999627 -0.0164647   
     length 2.16755   
     axis 0 0 0   XYZ
    dof rx ry rz
    limits (-20.0 45.0)
           (-30.0 30.0)
           (-30.0 30.0)
  end
  begin
     id 13 
     name thorax
     direction 0.02365 0.999661 0.0108914   
     length 2.16932   
     axis 0 0 0   XYZ
    dof rx ry rz
    limits (-20.0 45.0)
           (-30.0 30.0)
           (-30.0 30.0)
  end
  begin
     id 14 
     name lowerneck
     direction -0.0523929 0.978385 0.200044   
     length 1.63877   
     axis 0 0 0   XYZ
    dof rx ry rz
    limits (-20.0 45.0)
           (-30.0 30.0)
           (-30.0 30.0)
  end
  begin
     id 15 
     name upperneck
     direction 0.0448674 0.981321 -0.187074   
     length 1.69014   
     axis 0 0 0   XYZ
    dof rx ry rz
    limits (-20.0 45.0)
           (-30.0 30.0)
           (-30.0 30.0)
  end
  begin
     id 16
     name head
     direction 0.0199089 0.996118 -0.0857429  
     length 1.70094  
     axis 0 0 0   XYZ
    dof rx ry rz
    limits (-20.0 45.0)
           (-30.0 30.0)
           (-30.0 30.0)
  end
  begin
     id 17 
     name lclavicle
     direction 0.940366 0.30191 -0.156722  
     length 3.37521  
     axis 0 0 0   XYZ
    dof ry rz
    limits (-20.0 10.0)
           (0.0 20.0)
  end
  begin
     id 18 
     name lhumerus
     direction 1 -4.4897e-011 -1.7911e-027   
     length 5.25287   
     axis 180 -30 -90   XYZ
    dof rx ry rz
    limits (-60.0 90.0)
           (-90.0 90.0)
           (-90.0 90.0)
  end
  begin
     id 19
     name lradius
     direction 1 -4.48951e-011 1.04424e-027   
     length 3.51014   
     axis 180 -30 -90   XYZ
    dof rx
    limits (-10.0 170.0)
  end
  begin
     id 20
     name lwrist
     direction 1 -4.48997e-011 -9.5942e-028   
     length 1.75507   
     axis 8.48502e-016 90 90   XYZ
    dof ry
    limits (-180.0 0.0)
 end
  begin
     id 21 
     name lhand
     direction 1 -4.48831e-011 -1.90777e-027   
     length 0.706179   
     axis 1.22306e-015 90 90   XYZ
    dof rx rz
    limits (-90.0 90.0)
           (-45.0 45.0)
  end
  begin
     id 22 
     name lfingers
     direction 1 -4.49108e-011 -3.85244e-027   
     length 0.569339   
     axis 2.44611e-015 90 90   XYZ
    dof rx
    limits (0.0 90.0)
  end
  begin
     id 23
     name lthumb
     direction 0.707107 -6.34953e-011 0.707107   
     length 0.817461   
     axis -90 45 -1.62303e-014   XYZ
    dof rx rz
    limits (-45.0 45.0)
           (-45.0 45.0)
  end
  begin
     id 24 
     name rclavicle
     direction -0.905329 0.382405 -0.184787   
     length 3.30787  
     axis 0 0 0   XYZ 
    dof ry rz
    limits (-10.0 20.0)
           (-20.0 0.0)
  end
  begin
     id 25 
     name rhumerus
     direction -1 -4.48953e-011 -9.15316e-029  
     length 5.28721   
     axis 180 30 90   XYZ
    dof rx ry rz
    limits (-90.0 60.0)
           (-90.0 90.0)
           (-90.0 90.0)
  end
  begin
     id 26 
     name rradius
     direction -1 -4.48987e-011 9.37824e-028   
     length 3.50544   
     axis 180 30 90   XYZ
    dof rx
    limits (-10.0 170.0)
  end
  begin
     id 27 
     name rwrist
     direction -1 -4.48967e-011 -9.58414e-028   
     length 1.75272   
     axis 8.48502e-016 -90 -90   XYZ
    dof ry
    limits (-180.0 0.0)
  end
  begin
     id 28
     name rhand
     direction -1 -4.48904e-011 -1.91266e-027   
     length 0.884996   
     axis 1.22306e-015 -90 -90   XYZ
    dof rx rz
    limits (-90.0 90.0)
           (-45.0 45.0)
  end
  begin
     id 29
     name rfingers
     direction -1 -4.4909e-011 -3.85015e-027   
     length 0.713507   
     axis 2.44611e-015 -90 -90   XYZ
    dof rx
    limits (0.0 90.0)
  end
  begin
     id 30
     name rthumb
     direction -0.707107 -6.34853e-011 0.707107   
     length 1.02446   
     axis -90 -45 1.62303e-014   XYZ
    dof rx rz
    limits (-45.0 45.0)
           (-45.0 45.0)
  end
:hierarchy
  begin
    root lhipjoint rhipjoint lowerback
    lhipjoint lfemur
    lfemur ltibia
    ltibia lfoot
    lfoot ltoes
    rhipjoint rfemur
    rfemur rtibia
    rtibia rfoot
    rfoot rtoes
    lowerback upperback
    upperback thorax
    thorax lowerneck lclavicle rclavicle
    lowerneck upperneck
    upperneck head
    lclavicle lhumerus
    lhumerus lradius
    lradius lwrist
    lwrist lhand lthumb
    lhand lfingers
    rclavicle rhumerus
    rhumerus rradius
    rradius rwrist
    rwrist rhand rthumb
    rhand rfingers
  end

#!OML:ASF F:\twosubjects\two\Thursday\Session 1\justin.ASF
:FULLY-SPECIFIED
:DEGREES
224
root 9.47596 16.5473 -19.9464 -38.9339 -86.0988 41.7009
lowerback 5.09701 1.19143 -1.89261
upperback 0.618325 1.51918 2.50726
thorax -2.33927 0.77555 3.54254
lowerneck -22.2179 7.41506 -2.32453
upperneck 21.466 10.3904 2.65316
head 10.23 4.88566 2.85599
rclavicle 1.68967e-014 -3.18055e-015
rhumerus -39.5225 -31.5182 -70.9587
rradius 28.7503
rwrist -8.23807
rhand -7.49177 4.82776
rfingers 7.12502
rthumb 18.3978 -24.3222
lclavicle 1.68967e-014 -3.18055e-015
lhumerus -33.5587 25.7805 84.3572
lradius 24.2331
lwrist -2.27945
lhand -0.500813 46.3127
lfingers 7.12502
lthumb 25.1106 74.6815
rfemur -17.4822 -2.48817 21.9757
rtibia 53.8456
rfoot -35.4033 -6.75888
rtoes -0.943683
lfemur -17.8261 5.49157 -21.7407
ltibia 47.2163
lfoot -25.9984 -7.00941
ltoes -1.37484
225
root 9.43505 16.5869 -19.9493 -33.7572 -85.9317 36.3441
lowerback 4.59307 1.09268 -1.73042
upperback 0.817541 1.39629 2.62595
thorax -1.84167 0.702642 3.59229
lowerneck -22.7215 7.60224 -1.34832
upperneck 21.7825 10.5664 1.77708
head 10.5475 4.91543 2.46829
rclavicle -2.39536e-014 -2.38542e-014
rhumerus -38.9662 -29.1392 -74.3988
rradius 28.9376
rwrist -8.89951
rhand -8.29446 4.66296
rfingers 7.12502
rthumb 17.6255 -24.5581
lclavicle -2.39536e-014 -2.38542e-014
lhumerus -33.2211 22.153 87.6229
lradius 24.9444
lwrist -2.26084
lhand 0.825457 45.9473
lfingers 7.12502
lthumb 26.3808 74.132
rfemur -16.5245 -2.4816 22.1503
rtibia 52.7954
rfoot -35.6628 -6.58212
rtoes 0.538777
lfemur -17.0299 5.33174 -21.3637
ltibia 46.4331
lfoot -25.772 -8.09222
ltoes 3.53257
226
root 9.40534 16.6224 -19.9527 -33.8959 -85.5863 36.2407
lowerback 4.15809 1.00815 -1.93282
upperback 1.05135 1.2733 2.66172
thorax -1.35359 0.6315 3.75977
lowerneck -22.0905 7.49708 -2.08846
upperneck 21.1207 10.521 2.24683
head 10.119 4.92458 2.67792
rclavicle 1.63003e-014 1.74931e-014
rhumerus -38.363 -26.4233 -77.7922
rradius 29.2776
rwrist -9.95893
rhand -10.146 5.40262
rfingers 7.12502
rthumb 15.843 -23.9692
lclavicle 1.63003e-014 1.74931e-014
lhumerus -33.1138 18.6451 90.6165
lradius 25.9204
lwrist -2.35588
lhand 2.08066 45.7766
lfingers 7.12502
lthumb 27.5817 73.7755
rfemur -15.5731 -2.47488 21.9033
rtibia 51.6978
rfoot -35.6781 -6.50672
rtoes 1.53567
lfemur -16.1663 5.30804 -21.4861
ltibia 45.5367
lfoot -25.6222 -8.81397
ltoes 7.10599
227
root 9.38615 16.6401 -19.9572 -35.7789 -85.4572 37.7184
lowerback 4.09475 0.923002 -2.06044
upperback 1.22027 1.15126 2.65741
thorax -1.13705 0.564351 3.8364
lowerneck -21.8465 7.5545 -2.17455
upperneck 21.0806 10.6139 2.27801
head 10.0505 4.96773 2.70079
rclavicle -1.13307e-014 -3.18055e-014
rhumerus -38.239 -24.491 -80.3365
rradius 29.4913
rwrist -9.10927
rhand -9.73831 6.98271
rfingers 7.12502
rthumb 16.2356 -22.3575
lclavicle -1.13307e-014 -3.18055e-014
lhumerus -33.5131 15.408 93.1866
lradius 27.3911
lwrist -2.1709
lhand 1.83884 46.9053
lfingers 7.12502
lthumb 27.3505 74.9409
rfemur -14.4868 -2.22728 21.7144
rtibia 50.6717
rfoot -35.5927 -6.58482
rtoes 2.63289
lfemur -15.1887 5.74322 -21.6759
ltibia 44.5489
lfoot -25.6517 -8.36403
ltoes 5.14492
228
root 9.37367 16.6467 -19.9729 -39.2966 -85.408 40.8912
lowerback 4.25475 1.01987 -2.3497
upperback 1.20969 1.26744 2.54597
thorax -1.25052 0.625811 3.87592
lowerneck -21.928 7.62196 -1.20601
upperneck 21.4777 10.576 1.57423
head 10.3139 4.92168 2.32767
rclavicle -1.98785e-016 -6.36111e-015
rhumerus -39.2471 -26.0857 -79.9443
rradius 30.0904
rwrist -10.73
rhand -12.3355 4.31099
rfingers 7.12502
rthumb 13.7337 -25.2158
lclavicle -1.98785e-016 -6.36111e-015
lhumerus -34.4514 15.621 92.8956
lradius 28.6517
lwrist -5.0791
lhand 8.87866 47.5063
lfingers 7.12502
lthumb 34.062 74.2762
rfemur -13.5716 -1.54225 21.6679
rtibia 49.8363
rfoot -35.186 -7.93904
rtoes 0.248795
lfemur -14.2264 6.14593 -21.9559
ltibia 43.4825
lfoot -25.4579 -7.6558
ltoes 2.33766
229
root 9.36145 16.6753 -19.9903 -46.4302 -85.1023 47.8735
lowerback 4.23672 1.13136 -2.95486
upperback 1.1815 1.39208 2.22738
thorax -1.28609 0.692703 3.88085
lowerneck -21.288 7.52962 -1.39414
upperneck 21.052 10.3686 2.03429
head 10.0076 4.88986 2.43733
rclavicle 4.57205e-015 1.11319e-014
rhumerus -40.5219 -27.8496 -79.1425
rradius 31.2924
rwrist -15.5729
rhand -12.8994 2.83293
rfingers 7.12502
rthumb 13.1902 -26.7298
lclavicle 4.57205e-015 1.11319e-014
lhumerus -35.1034 16.2363 91.6518
lradius 29.4369
lwrist -6.91963
lhand 17.4386 49.2203
lfingers 7.12502
lthumb 42.1419 73.7626
rfemur -13.0871 -0.495906 21.1785
rtibia 49.2455
rfoot -34.6925 -8.84817
rtoes -0.538377
lfemur -13.3842 6.16038 -22.7203
ltibia 42.3963
lfoot -24.9418 -7.08409
ltoes 2.6746
230
root 9.34141 16.7359 -19.9876 -51.4402 -84.6224 52.9606
lowerback 3.85258 1.04795 -3.37889
upperback 1.15369 1.27456 1.98298
thorax -1.09261 0.633095 3.87953
lowerneck -21.0387 7.57798 -1.58166
upperneck 21.1418 10.4377 2.25007
head 9.96787 4.93305 2.54035
rclavicle 2.8128e-014 7.15625e-015
rhumerus -41.4134 -28.6656 -78.245
rradius 32.3727
rwrist -21.9239
rhand -12.6991 3.22418
rfingers 7.12502
rthumb 13.3833 -26.326
lclavicle 2.8128e-014 7.15625e-015
lhumerus -35.2695 15.9184 91.005
lradius 29.8035
lwrist -6.19428
lhand 11.0729 46.4427
lfingers 7.12502
lthumb 36.1433 72.7239
rfemur -12.8866 0.519988 20.4909
rtibia 48.8537
rfoot -34.5436 -8.60902
rtoes 2.34263
lfemur -12.8101 5.88679 -23.6324
ltibia 41.3363
lfoot -24.2557 -6.33171
ltoes 3.27813
231
root 9.31182 16.7956 -19.9668 -49.7189 -84.3483 51.6185
lowerback 3.01744 0.886438 -3.20261
upperback 1.02574 1.091 2.02091
thorax -0.737338 0.537493 3.83852
lowerneck -20.9062 7.59399 -2.02754
upperneck 21.439 10.5455 2.48698
head 10.0054 4.96837 2.70896
rclavicle -1.07344e-014 -2.38542e-014
rhumerus -41.8502 -28.5342 -77.2796
rradius 32.5659
rwrist -25.3644
rhand -11.8155 3.29964
rfingers 7.12502
rthumb 14.2348 -26.1925
lclavicle -1.07344e-014 -2.38542e-014
lhumerus -35.2978 15.0115 91.0964
lradius 29.9798
lwrist -2.75263
lhand 5.13877 46.9925
lfingers 7.12502
lthumb 30.5023 74.4877
rfemur -12.9134 0.680305 20.37
rtibia 48.4793
rfoot -34.3932 -9.09276
rtoes 2.75275
lfemur -12.6559 5.52012 -24.0407
ltibia 40.4037
lfoot -23.7094 -5.44129
ltoes 1.48342
232
root 9.27845 16.838 -19.9449 -45.7691 -83.9358 48.2451
lowerback 1.8 0.734513 -2.93835
upperback 0.899164 0.927025 2.03929
thorax -0.166902 0.448033 3.728
lowerneck -20.9661 7.51353 -2.6231
upperneck 21.9576 10.4964 3.02729
head 10.133 4.9486 3.00278
rclavicle 2.98177e-015 1.27222e-014
rhumerus -42.0486 -27.699 -76.7565
rradius 32.2875
rwrist -24.6722
rhand -11.3514 3.02294
rfingers 7.12502
rthumb 14.682 -26.4372
lclavicle 2.98177e-015 1.27222e-014
lhumerus -35.1622 13.8865 91.2108
lradius 29.9837
lwrist 0.952184
lhand 0.900947 48.7085
lfingers 7.12502
lthumb 26.453 76.8824
rfemur -13.1718 0.128356 20.2788
rtibia 48.048
rfoot -34.1867 -9.6554
rtoes 2.14629
lfemur -12.7787 5.0119 -24.3784
ltibia 39.6128
lfoot -23.4228 -4.72134
ltoes -0.190373
233
root 9.24858 16.8787 -19.9278 -39.0133 -83.6375 42.1065
lowerback 0.617446 0.583097 -2.22853
upperback 0.691639 0.755929 2.0235
thorax 0.306651 0.36026 3.32529
lowerneck -20.9084 7.38191 -3.03371
upperneck 22.3885 10.2866 3.64438
head 10.221 4.88305 3.26585
rclavicle 3.08116e-015 1.90833e-014
rhumerus -42.3672 -26.258 -76.7852
rradius 31.9706
rwrist -21.1867
rhand -11.7862 3.89436
rfingers 7.12502
rthumb 14.2631 -25.5958
lclavicle 3.08116e-015 1.90833e-014
lhumerus -35.0266 12.6117 90.9227
lradius 29.7103
lwrist 3.20598
lhand -1.37515 49.3472
lfingers 7.12502
lthumb 24.2726 77.8307
rfemur -13.4887 -0.443972 20.5885
rtibia 47.5117
rfoot -33.9938 -9.93905
rtoes 0.85998
lfemur -13.0865 4.26994 -24.2417
ltibia 38.9866
lfoot -23.0342 -4.55443
ltoes 0.577507
234
root 9.22051 16.9229 -19.9192 -32.6869 -83.4373 36.4387
lowerback -0.356315 0.386831 -1.64212
upperback 0.332489 0.504948 2.13481
thorax 0.506931 0.237876 3.11606
lowerneck -21.1475 7.41049 -3.17449
upperneck 23.198 10.2643 4.10348
head 10.5214 4.89142 3.49445
rclavicle -4.96962e-015 6.36111e-015
rhumerus -42.727 -24.1059 -76.9169
rradius 31.513
rwrist -16.9505
rhand -11.8095 4.59634
rfingers 7.12502
rthumb 14.2405 -24.8954
lclavicle -4.96962e-015 6.36111e-015
lhumerus -35.1869 12.0232 90.3618
lradius 29.2615
lwrist 3.08615
lhand -2.00344 48.584
lfingers 7.12502
lthumb 23.6701 77.1467
rfemur -13.8514 -0.892331 21.052
rtibia 46.9316
rfoot -33.6747 -10.2564
rtoes -1.14465
lfemur -13.5051 3.64586 -23.9358
ltibia 38.4297
lfoot -22.5717 -4.52155
ltoes 2.63179
